<?xml version="1.0" encoding="UTF-8"?>
<svg xmlns="http://www.w3.org/2000/svg" xmlns:xlink="http://www.w3.org/1999/xlink" width="30px" height="30px" viewBox="0 0 30 30" version="1.1">
<g id="surface1">
<path style=" stroke:none;fill-rule:evenodd;fill:rgb(0%,0%,0%);fill-opacity:1;" d="M 20.304688 18.976562 C 20.671875 19.339844 20.671875 19.941406 20.304688 20.304688 C 19.9375 20.671875 19.34375 20.671875 18.976562 20.304688 L 15.003906 16.332031 L 11.007812 20.335938 C 10.636719 20.699219 10.039062 20.699219 9.667969 20.335938 C 9.300781 19.960938 9.300781 19.359375 9.667969 18.992188 L 13.667969 14.992188 L 9.699219 11.023438 C 9.332031 10.660156 9.332031 10.058594 9.699219 9.695312 C 10.0625 9.328125 10.65625 9.328125 11.023438 9.695312 L 14.996094 13.667969 L 19.023438 9.636719 C 19.394531 9.273438 19.992188 9.273438 20.359375 9.636719 C 20.726562 10.011719 20.726562 10.601562 20.359375 10.976562 L 16.332031 15.007812 Z M 15 0 C 6.714844 0 0 6.710938 0 15 C 0 23.289062 6.714844 30 15 30 C 23.285156 30 30 23.289062 30 15 C 30 6.710938 23.285156 0 15 0 Z M 15 0 "/>
</g>
</svg>
